<svg xmlns="http://www.w3.org/2000/svg" viewBox="0 0 522 522"><defs><style>.cls-1{fill:#ed2d30}.cls-2{fill:#b01e20}.cls-3{fill:#fff}.cls-4{fill:#8b1010}.cls-5{fill:#c42426}</style></defs><title>aso-tfbtv2</title><g id="Layer_2" data-name="Layer 2"><rect width="522" height="522" class="cls-1" rx="65.25" ry="65.25"/></g><g id="Layer_3" data-name="Layer 3"><path d="M139,129.71h-9l-3.83-10.89H107.55l-3.75,10.89h-9l16.78-46h10.89ZM116.89,91.45l-7,19.94h13.91Z" class="cls-2" transform="translate(-27 -31.17)"/><path d="M166.93,117.13c0-3.83-3.46-5.22-10.23-7.06s-14.27-4.78-14.27-13.83c0-8.17,6.25-13.61,16.48-13.61a31.31,31.31,0,0,1,15.82,4l-2.21,7.58a27.94,27.94,0,0,0-13.54-4c-5.37,0-7.73,2.28-7.73,5.44,0,3.75,4.12,5.22,10.45,6.92,6.92,1.91,14.05,5.08,14.05,13.83,0,8.39-6.7,14.35-17.51,14.35a32.91,32.91,0,0,1-16.55-4.27l2.06-7.73a28.1,28.1,0,0,0,14.64,4.41C163.4,123.24,166.93,120.81,166.93,117.13Z" class="cls-2" transform="translate(-27 -31.17)"/><path d="M223.88,117.13c0-3.83-3.46-5.22-10.23-7.06s-14.27-4.78-14.27-13.83c0-8.17,6.25-13.61,16.48-13.61a31.31,31.31,0,0,1,15.82,4l-2.21,7.58a27.94,27.94,0,0,0-13.54-4c-5.37,0-7.73,2.28-7.73,5.44,0,3.75,4.12,5.22,10.45,6.92,6.92,1.91,14.05,5.08,14.05,13.83,0,8.39-6.7,14.35-17.51,14.35a32.91,32.91,0,0,1-16.55-4.27l2.06-7.73a28.1,28.1,0,0,0,14.64,4.41C220.34,123.24,223.88,120.81,223.88,117.13Z" class="cls-2" transform="translate(-27 -31.17)"/><path d="M240.95,129.71v-46h31.34v7.58H249.78v11.55h18.47v7.58H249.78v11.7h22.51v7.58Z" class="cls-2" transform="translate(-27 -31.17)"/><path d="M281,129.71v-46h31.34v7.58H289.8v11.55h18.47v7.58H289.8v11.7h22.51v7.58Z" class="cls-2" transform="translate(-27 -31.17)"/><path d="M352.56,83.73h8.53v46.43h-9.57l-22-33.85v33.4H321v-46h9.79l21.78,33.48Z" class="cls-2" transform="translate(-27 -31.17)"/><path d="M409.15,130.82c-13.61,0-23.62-8.9-23.62-24,0-14.2,10.08-24.21,23.69-24.21s23.54,8.83,23.54,23.91C432.76,120.74,422.76,130.82,409.15,130.82ZM409,90.13c-8.76,0-14.42,6.62-14.42,16.41,0,10.08,5.74,16.78,14.71,16.78,8.76,0,14.49-6.7,14.49-16.48C423.79,96.75,418,90.13,409,90.13Z" class="cls-2" transform="translate(-27 -31.17)"/><path d="M472.72,83.73h8.53v46.43h-9.57l-22-33.85v33.4h-8.53v-46h9.79l21.78,33.48Z" class="cls-2" transform="translate(-27 -31.17)"/><path d="M178.14,190.25V290.5H135.58V190.25H94.75V155.47H219v34.78Z" class="cls-2" transform="translate(-27 -31.17)"/><path d="M236.69,155.47H340V189.6H278.6V209h48v33.7h-48V290.5H236.69Z" class="cls-2" transform="translate(-27 -31.17)"/><path d="M481.25,250.75c0,21-9.51,39.75-57,39.75H358.53v-135H424c44.29,0,53.15,15.77,53.15,35,0,16-10.15,25.06-26.14,29C468.07,222,481.25,233.25,481.25,250.75Zm-62.66-65h-19V211H417.3c11.67,0,17.28-4.32,17.28-13C434.59,189.6,429,185.72,418.6,185.72ZM419,235H399.58v25.28h19.88c13,0,18.8-3.89,18.8-12.75C438.26,238.22,431.13,235,419,235Z" class="cls-2" transform="translate(-27 -31.17)"/></g><g id="Layer_6" data-name="Layer 6"><polygon points="67.75 98.55 67.75 96.55 80.55 85.66 99.09 85.66 111.97 96.55 111.97 98.55 96.81 78.22 82.91 78.22 67.75 98.55" class="cls-2"/><polygon points="114.69 95.38 114.69 93.38 144.33 93.38 144.33 73.83 121.79 73.83 121.79 51.73 144.06 51.73 147.73 53.5 147.73 55.5 122.67 55.5 122.67 72.83 142.94 72.83 142.94 94.34 116.44 94.34 114.69 95.38" class="cls-2"/><polygon points="171.64 95.38 171.64 93.38 201.28 93.38 201.28 73.83 178.74 73.83 178.74 51.73 201.01 51.73 204.68 53.5 204.68 55.5 179.62 55.5 179.62 72.83 199.89 72.83 199.89 94.34 173.39 94.34 171.64 95.38" class="cls-2"/></g><g id="Layer_5" data-name="Layer 5"><path d="M139,127.71h-9l-3.83-10.89H107.55l-3.75,10.89h-9l16.78-46h10.89ZM116.89,89.45l-7,19.94h13.91Z" class="cls-3" transform="translate(-27 -31.17)"/><path d="M166.93,115.13c0-3.83-3.46-5.22-10.23-7.06s-14.27-4.78-14.27-13.83c0-8.17,6.25-13.61,16.48-13.61a31.31,31.31,0,0,1,15.82,4l-2.21,7.58a27.94,27.94,0,0,0-13.54-4c-5.37,0-7.73,2.28-7.73,5.44,0,3.75,4.12,5.22,10.45,6.92,6.92,1.91,14.05,5.08,14.05,13.83,0,8.39-6.7,14.35-17.51,14.35a32.91,32.91,0,0,1-16.55-4.27l2.06-7.73a28.1,28.1,0,0,0,14.64,4.41C163.4,121.24,166.93,118.81,166.93,115.13Z" class="cls-3" transform="translate(-27 -31.17)"/><path d="M223.88,115.13c0-3.83-3.46-5.22-10.23-7.06s-14.27-4.78-14.27-13.83c0-8.17,6.25-13.61,16.48-13.61a31.31,31.31,0,0,1,15.82,4l-2.21,7.58a27.94,27.94,0,0,0-13.54-4c-5.37,0-7.73,2.28-7.73,5.44,0,3.75,4.12,5.22,10.45,6.92,6.92,1.91,14.05,5.08,14.05,13.83,0,8.39-6.7,14.35-17.51,14.35a32.91,32.91,0,0,1-16.55-4.27l2.06-7.73a28.1,28.1,0,0,0,14.64,4.41C220.34,121.24,223.88,118.81,223.88,115.13Z" class="cls-3" transform="translate(-27 -31.17)"/><path d="M240.95,127.71v-46h31.34v7.58H249.78v11.55h18.47v7.58H249.78v11.7h22.51v7.58Z" class="cls-3" transform="translate(-27 -31.17)"/><path d="M281,127.71v-46h31.34v7.58H289.8v11.55h18.47v7.58H289.8v11.7h22.51v7.58Z" class="cls-3" transform="translate(-27 -31.17)"/><path d="M352.56,81.73h8.53v46.43h-9.57l-22-33.85v33.4H321v-46h9.79l21.78,33.48Z" class="cls-3" transform="translate(-27 -31.17)"/><path d="M409.15,128.82c-13.61,0-23.62-8.9-23.62-24,0-14.2,10.08-24.21,23.69-24.21s23.54,8.83,23.54,23.91C432.76,118.74,422.76,128.82,409.15,128.82ZM409,88.13c-8.76,0-14.42,6.62-14.42,16.41,0,10.08,5.74,16.78,14.71,16.78,8.76,0,14.49-6.7,14.49-16.48C423.79,94.75,418,88.13,409,88.13Z" class="cls-3" transform="translate(-27 -31.17)"/><path d="M472.72,81.73h8.53v46.43h-9.57l-22-33.85v33.4h-8.53v-46h9.79l21.78,33.48Z" class="cls-3" transform="translate(-27 -31.17)"/><path d="M178.14,184.48V284.73H135.58V184.48H94.75V149.7H219v34.78Z" class="cls-3" transform="translate(-27 -31.17)"/><path d="M236.69,149.7H340v34.14H278.6v19.44h48V237h-48v47.75H236.69Z" class="cls-3" transform="translate(-27 -31.17)"/><path d="M481.25,245c0,21-9.51,39.75-57,39.75H358.53v-135H424c44.29,0,53.15,15.77,53.15,35,0,16-10.15,25.06-26.14,29C468.07,216.24,481.25,227.48,481.25,245Zm-62.66-65h-19v25.28H417.3c11.67,0,17.28-4.32,17.28-13C434.59,183.83,429,179.94,418.6,179.94ZM419,229.2H399.58v25.28h19.88c13,0,18.8-3.89,18.8-12.75C438.26,232.44,431.13,229.2,419,229.2Z" class="cls-3" transform="translate(-27 -31.17)"/><polygon points="392.01 274.44 354.36 407.43 316.71 274.44 292.75 274.44 254.77 274.44 67.75 274.44 67.75 323.33 125.13 323.33 125.13 464.21 184.95 464.21 184.95 323.33 270.57 323.33 316.1 464.21 392.01 464.21 454.25 274.44 392.01 274.44" class="cls-4"/></g><g id="Layer_7" data-name="Layer 7"><polygon points="74.67 280.94 318.67 280.94 354.36 407.43 358.73 410.39 396.25 280.94 452.12 280.94 454.25 274.44 392.01 274.44 354.36 407.43 316.71 274.44 67.75 274.44 67.75 323.33 74.67 323.33 74.67 280.94" class="cls-5"/><polygon points="125.13 323.33 130.32 328.51 130.32 464.21 125.13 464.21 125.13 323.33" class="cls-5"/><polygon points="270.57 323.33 274.2 326.96 318.67 464.21 316.1 464.21 270.57 323.33" class="cls-5"/></g><g id="Layer_8" data-name="Layer 8"><polygon points="67.75 274.44 74.67 280.94 318.67 280.94 316.71 274.44 67.75 274.44" class="cls-2"/><polygon points="454.25 274.44 392.01 274.44 396.25 280.94 452.12 280.94 454.25 274.44" class="cls-2"/></g></svg>